<svg width="150" height="150" viewBox="0 0 150 150" fill="none" xmlns="http://www.w3.org/2000/svg">
<path d="M93.75 21.0938C84.0191 21.0985 74.4706 23.7345 66.1155 28.7228C57.7605 33.7111 50.9098 40.8659 46.289 49.4297C40.913 48.8743 35.4801 49.4184 30.321 51.0291C25.1619 52.6397 20.3844 55.2831 16.2792 58.7984C12.1739 62.3137 8.82682 66.6275 6.44145 71.4773C4.05608 76.3271 2.68233 81.6115 2.40378 87.009C2.12524 92.4065 2.94771 97.8042 4.82117 102.874C6.69463 107.943 9.5799 112.579 13.3015 116.498C17.023 120.417 21.503 123.538 26.4689 125.672C31.4348 127.805 36.7828 128.905 42.1875 128.906H93.75C108.047 128.906 121.758 123.227 131.867 113.117C141.977 103.008 147.656 89.2968 147.656 75C147.656 60.7032 141.977 46.9919 131.867 36.8825C121.758 26.7731 108.047 21.0938 93.75 21.0938ZM93.75 114.844H42.1875C35.3499 114.985 28.7361 112.405 23.8012 107.67C18.8663 102.935 16.0144 96.4333 15.873 89.5957C15.7316 82.7581 18.3122 76.1444 23.0471 71.2094C27.7821 66.2745 34.2835 63.4227 41.1211 63.2812C40.2675 67.129 39.8392 71.0588 39.8437 75C39.8437 76.8648 40.5845 78.6532 41.9031 79.9718C43.2217 81.2905 45.0102 82.0312 46.875 82.0312C48.7398 82.0312 50.5282 81.2905 51.8468 79.9718C53.1654 78.6532 53.9062 76.8648 53.9062 75C53.9062 67.1197 56.243 59.4163 60.6211 52.864C64.9992 46.3117 71.2219 41.2049 78.5024 38.1892C85.7829 35.1735 93.7942 34.3845 101.523 35.9218C109.252 37.4592 116.352 41.254 121.924 46.8262C127.496 52.3985 131.291 59.4979 132.828 67.2269C134.366 74.9558 133.576 82.9671 130.561 90.2475C127.545 97.528 122.438 103.751 115.886 108.129C109.334 112.507 101.63 114.844 93.75 114.844Z" fill="#0AA88C"/>
</svg>
